<?xml version="1.0" standalone="no"?><!DOCTYPE svg PUBLIC "-//W3C//DTD SVG 1.1//EN" "http://www.w3.org/Graphics/SVG/1.1/DTD/svg11.dtd"><svg t="1740120757204" class="icon" viewBox="0 0 1024 1024" version="1.1" xmlns="http://www.w3.org/2000/svg" p-id="3315" xmlns:xlink="http://www.w3.org/1999/xlink" width="200" height="200"><path d="M249.621943 950.506057s156.768549-7.835063 260.953234-8.788846c115.758811-1.059109 300.163657 8.788846 300.163657 8.788846l191.318309 21.632732s-298.896823 17.712274-491.481966 17.577691C321.682286 989.584823 46.811429 972.138789 46.811429 972.138789l202.810514-21.632732z" fill="#000000" opacity=".5" p-id="3316"></path><path d="M247.222857 58.514286c-116.341029-11.521463-131.115886 246.470949-119.752411 394.991908-57.086537 81.896594-65.998263 153.020709-57.32352 221.567269 16.398629 129.600366 151.575406 195.121737 216.625737 221.693074 107.517074 43.914971 367.952457 86.086217 552.916114-51.243886 122.79808-91.174034 138.196114-282.773211 46.273097-392.016457C907.506834 71.70048 802.0992 44.11392 747.52 58.514286c-39.181166 10.336549-133.400869 120.940251-166.765714 177.005714-47.671589-13.932251-134.81984-13.385143-168.228572-6.951497C342.124251 91.311543 265.804069 60.35456 247.222857 58.514286z" fill="#FEB678" p-id="3317"></path><path d="M146.888411 189.284937c-17.027657 83.280457-18.203794 187.195977-12.478171 261.819246l0.400823 5.213623-2.995932 4.283245c-55.840183 79.907109-64.289646 148.430263-55.863588 214.861532 7.715109 60.810971 43.394194 107.280091 86.460708 142.347703 43.116251 35.108571 92.52864 57.847223 125.179612 71.150445 52.908617 21.553737 144.661943 43.06944 246.310034 41.937189 101.586651-1.129326 211.657874-24.848091 302.606629-92.20096 118.037943-87.411566 133.029303-272.284526 44.652251-377.042651l-3.750766-4.447086 0.32768-5.810469c10.933394-193.246354-11.992503-294.557989-42.054217-345.363017-14.798263-25.011931-31.038903-37.31456-45.538743-42.958263-14.634423-5.696366-28.865097-5.143406-40.36608-2.118217-6.556526 1.726171-17.87904 8.572343-32.981577 21.152914-14.52032 12.10368-30.880914 28.072229-47.259063 45.693806-32.867474 35.360183-64.667063 76.127086-80.948662 103.412297l-5.79584 9.713372-10.860252-3.165623c-22.510446-6.562377-51.597897-9.575863-79.693531-10.052754-28.063451-0.473966-53.909211 1.600366-69.640777 4.622628l-10.757852 2.065554-5.008823-9.742628c-34.965211-67.9936-73.198446-109.75232-104.401188-134.603337-31.741074-25.284023-55.442286-32.519314-61.036252-33.072275-22.7328-2.246949-41.352046 8.426057-57.355703 31.626972-16.345966 23.698286-28.61056 58.891703-37.15072 100.676754z m13.06624-117.291886c19.982629-28.964571 47.806171-47.733029 84.319086-44.128548 13.33248 1.316571 42.279497 12.138789 76.384549 39.304046 33.092754 26.35776 71.811657 68.666514 107.23328 134.670628 17.63328-2.434194 40.763977-3.7888 64.842605-3.382126 25.401051 0.43008 52.779886 2.832091 76.565943 8.390949 18.601691-28.818286 48.5376-66.39616 78.80704-98.962286 16.893074-18.171611 34.172343-35.093943 49.962423-48.25088 15.210789-12.674194 30.872137-23.446674 44.266057-26.969234 16.293303-4.289097 36.98688-5.198994 58.423589 3.145143 21.56544 8.3968 42.539886 25.638034 60.105874 55.325257 34.327406 58.016914 56.650606 165.1712 46.398903 356.196937 94.690743 117.865326 77.063314 318.303086-53.341623 414.875063-97.435063 72.153966-214.17984 96.770926-319.695726 97.944137-105.448594 1.173211-201.07264-21.038811-257.673508-44.096366-33.598903-13.689417-86.153509-37.727086-132.613852-75.556571-46.51008-37.873371-88.02304-90.512823-97.010834-161.356069-9.087269-71.621486 0.146286-146.285714 57.929143-230.985142-5.412571-75.85792-3.987749-179.85536 13.364663-264.730332 8.844434-43.268389 22.09792-82.96448 41.732388-111.434606z" fill="#894000" p-id="3318"></path><path d="M380.342857 552.96c35.108571-26.331429 58.514286-228.205714 78.994286-320.365714 2.21184-15.1552 73.142857-14.628571 76.068571 0 20.477074 102.4 64.263314 274.71872 100.937143 315.977143 11.702857 13.165714 19.017143 18.818194 52.662857 16.091428 54.125714-4.388571 132.400274-37.510583 174.08 20.48 19.289234 26.837577 45.348571 138.971429-7.314285 220.891429-71.545417 111.291246-269.165714 125.805714-337.92 125.805714-136.115931 0-258.925714-38.034286-311.588572-80.457143S128.731429 734.354286 155.062857 639.268571s127.268571-80.457143 146.285714-78.994285c42.422857 3.262171 55.86944 10.029349 78.994286-7.314286z" fill="#FFF9F0" p-id="3319"></path><path d="M573.448777 592.205531c0 21.656137-27.241326 46.87872-60.84608 46.87872-33.601829 0-60.843154-25.222583-60.843154-46.87872 0-21.656137 27.241326-39.210423 60.843154-39.210422 33.604754 0 60.84608 17.554286 60.84608 39.210422z m-210.14528 48.7424a11.699931 11.699931 0 0 1 15.374629 6.120595c2.688731 6.240549 10.079086 17.188571 21.875565 24.508708 1.410194 0.874789 2.890606 1.705691 4.441235 2.469303l6.808137 2.141623c11.895954 3.739063 20.825234 1.960229 36.518766-2.504411 1.024-0.289646 2.065554-0.590994 3.130514-0.895269l0.011703-0.002926c15.553097-4.46464 35.714194-10.248777 64.520777-10.251703 8.739109 0 17.419703 1.734949 25.324983 3.709806 11.664823 1.980709 23.08096 5.026377 34.485394 8.829806 0.397897 0.131657 0.801646 0.260389 1.205394 0.386194 12.680046 2.501486 25.295726 3.344091 38.555063 0.351086l7.744366-1.749577c15.038171-5.193143 25.123109-14.245303 28.072228-25.365943a11.702857 11.702857 0 0 1 22.624549 6.003566c-5.029303 18.946926-19.789531 31.606491-36.381257 38.876891 0.576366 3.52256 0.769463 7.144594 0.8192 10.339474 0.1024 6.211291-0.32768 13.616274-1.363383 21.685395-2.062629 16.100206-6.653074 35.831223-15.067429 55.076571-16.860891 38.557989-50.869394 78.1312-111.896868 76.507429-47.835429-1.272686-80.4864-31.919543-99.392366-65.813943-18.244754-32.712411-25.757989-71.835063-21.781943-99.462583l-0.722651-0.441783c-16.427886-10.19904-26.729326-25.158217-31.030126-35.140754a11.702857 11.702857 0 0 1 6.12352-15.377555z" fill="#6F3400" p-id="3320"></path><path d="M515.981897 718.166309c-53.640046 0-86.899566 26.629851-99.067611 43.982262 4.05504 20.956891 39.497143 75.53024 88.251245 77.028206C569.051429 841.142857 595.70176 803.828297 608.548571 768c-10.143451-15.550171-36.4544-49.833691-92.566674-49.833691z" fill="#FF8F8E" p-id="3321"></path><path d="M785.931703 612.498286c-32.709486-3.101257-57.595611-22.817646-55.585646-44.040777 2.012891-21.223131 30.158263-35.913143 62.867749-32.814812 32.709486 3.101257 57.595611 22.817646 55.585645 44.040777-2.012891 21.223131-30.158263 35.913143-62.867748 32.814812z m-535.042926 6.480457c32.709486-3.101257 57.583909-22.95808 55.556389-44.356754-2.030446-21.395749-30.190446-36.226194-62.899932-33.127863-32.709486 3.101257-57.580983 22.95808-55.553463 44.356754 2.02752 21.395749 30.18752 36.22912 62.897006 33.127863z" fill="#FF8F8E" p-id="3322"></path><path d="M355.570834 562.480274c24.894903-4.406126 41.984-25.444937 38.168869-46.992823-3.812206-21.54496-27.086263-35.439177-51.97824-31.033051-24.894903 4.406126-41.984 25.444937-38.168869 46.992823 3.812206 21.54496 27.086263 35.439177 51.97824 31.033051z m309.087086-0.087771c-23.493486-4.160366-39.511771-24.622811-35.77856-45.705509 3.730286-21.082697 25.798949-34.804297 49.292434-30.643931 23.493486 4.15744 39.511771 24.619886 35.77856 45.702583-3.730286 21.082697-25.801874 34.804297-49.292434 30.646857z" fill="#592900" p-id="3323"></path><path d="M492.649326 573.715017c0.816274 2.483931-3.408457 6.10304-9.435429 8.0896-6.029897 1.983634-11.579977 1.579886-12.396251-0.90112-0.8192-2.483931 3.405531-6.105966 9.435428-8.0896 6.029897-1.983634 11.579977-1.579886 12.396252 0.90112z" fill="#FFFFFF" opacity=".6" p-id="3324"></path><path d="M514.431269 529.583543c-27.598263-0.453486-54.634789 4.327131-71.445943 13.285668a8.774217 8.774217 0 1 1-8.256366-15.488731c20.491703-10.921691 50.8928-15.825189 79.989029-15.348297 29.008457 0.473966 58.958994 6.334171 78.17216 18.96448a8.777143 8.777143 0 1 1-9.643155 14.669531c-15.125943-9.944503-41.126766-15.629166-68.815725-16.082651z" fill="#480D21" opacity=".1" p-id="3325"></path><path d="M356.948846 529.577691a8.788846 8.788846 0 1 0 0-17.577691 8.788846 8.788846 0 0 0 0 17.577691z m301.348571 0a8.788846 8.788846 0 1 0 0-17.577691 8.788846 8.788846 0 0 0 0 17.577691z" fill="#FFFFFF" p-id="3326"></path><path d="M296.05888 753.034971c-10.400914-10.62912-18.996663-19.412114-47.651109-6.091337-14.570057 6.775954-27.302766 4.73088-39.599542 2.756023-12.296777-1.971931-24.160549-3.876571-36.998583 3.171474-10.304366 5.658331-14.400366 13.900069-18.660206 22.478263-5.286766 10.640823-10.825143 21.796571-28.79488 29.175223-33.244891 13.648457-43.29472 43.186469-38.2976 72.823954 4.994194 29.63456 69.933349 124.474514 178.167223 98.225006 108.2368-26.249509 127.204206-107.698469 116.379063-150.882011-8.37632-33.42336-25.863314-40.503589-47.706697-49.348023-6.380983-2.583406-13.136457-5.316023-20.143543-8.902949-7.165074-3.668846-12.106606-8.715703-16.694126-13.405623z m449.436526 0c10.400914-10.62912 18.996663-19.412114 47.651108-6.091337 14.572983 6.775954 27.302766 4.73088 39.599543 2.756023 12.296777-1.971931 24.157623-3.876571 36.998583 3.171474 10.304366 5.658331 14.400366 13.900069 18.660206 22.478263 5.286766 10.640823 10.828069 21.796571 28.797805 29.175223 33.241966 13.648457 43.291794 43.186469 38.2976 72.823954-4.99712 29.63456-69.936274 124.474514-178.170148 98.225006-108.2368-26.249509-127.204206-107.698469-116.379063-150.882011 8.37632-33.42336 25.863314-40.503589 47.706697-49.348023 6.380983-2.583406 13.136457-5.316023 20.143543-8.902949 7.165074-3.668846 12.106606-8.715703 16.694126-13.405623z" fill="#FFF9F0" p-id="3327"></path><path d="M312.09472 772.306651c-7.808731-3.955566-13.449509-9.058011-17.887817-13.43488-1.243429-1.2288-2.33472-2.331794-3.326537-3.332388-2.858423-2.890606-4.868389-4.921051-7.273326-6.638446-2.554149-1.828571-5.03808-2.849646-8.736183-2.843794-4.151589 0.005851-10.579383 1.322423-20.72576 5.994788-18.666057 8.595749-35.178789 5.965531-48.010971 3.920458l-0.643657-0.1024c-13.317851-2.118217-22.065737-3.218286-31.752778 2.048-7.548343 4.107703-10.275109 9.476389-14.938697 18.671908-0.520777 1.026926-1.067886 2.103589-1.647177 3.229989-5.85728 11.392731-14.025874 24.365349-34.845257 32.832365-15.076206 6.132297-24.242469 15.48288-29.301029 26.094446-5.149257 10.801737-6.4512 23.780206-4.119405 37.475474 0.9216 5.409646 5.187291 15.836891 13.747931 28.484755 8.364617 12.355291 20.228389 25.924754 35.284114 37.768045 29.947611 23.557851 72.192 40.117394 125.349303 27.349578 54.590903-13.115977 85.416229-39.614171 101.531063-67.016412 16.32256-27.7504 18.069211-57.259154 13.080869-76.978468-5.032229-19.891931-13.028206-28.332617-22.633326-34.154789-5.295543-3.212434-11.348846-5.769509-18.771383-8.756663l-2.115291-0.848457-0.026332-0.008777c-6.714514-2.691657-14.336-5.749029-22.238354-9.754332z m-67.739063-41.515885c11.717486-5.395017 21.638583-8.127634 30.485943-8.139337 9.303771-0.011703 16.471771 2.981303 22.38464 7.211885 4.192549 2.998857 8.086674 6.951497 11.228891 10.140526 0.77824 0.789943 1.512594 1.536 2.19136 2.205989 3.832686 3.780023 7.437166 6.892983 12.027612 9.218925 6.936869 3.516709 13.616274 6.196663 20.424411 8.92928l2.112366 0.845532c7.33184 2.952046 15.041097 6.135223 22.168137 10.456503 15.248823 9.242331 26.764434 23.028297 33.192229 48.429348 6.468754 25.573669 3.905829 61.422446-15.596983 94.585417-19.713463 33.516983-56.232229 63.490926-116.238629 77.90592-61.445851 14.763154-110.881646-4.643109-145.288045-31.708891-17.12128-13.467063-30.602971-28.870949-40.199315-43.046034-9.397394-13.88544-15.711086-27.5456-17.437257-37.677349-2.954971-17.38752-1.579886-35.439177 6.067932-51.475017 7.735589-16.228937 21.492297-29.520457 41.612434-37.70368 13.546057-5.50912 18.282789-12.978469 22.843977-21.85216 0.500297-0.974263 1.009371-2.001189 1.541851-3.074926 4.42368-8.926354 10.351177-20.895451 24.681326-28.686628 17.112503-9.306697 33.148343-6.746697 45.743543-4.739658l0.863086 0.137509c13.118903 2.086034 23.317943 3.505006 35.190491-1.963154z m485.106834 41.515885c7.805806-3.955566 13.446583-9.058011 17.884892-13.43488 1.243429-1.2288 2.33472-2.331794 3.326537-3.332388 2.858423-2.890606 4.868389-4.921051 7.273326-6.638446 2.554149-1.828571 5.03808-2.849646 8.736183-2.843794 4.151589 0.005851 10.579383 1.322423 20.72576 5.994788 18.666057 8.595749 35.178789 5.965531 48.008045 3.920458l0.649509-0.1024c13.314926-2.118217 22.062811-3.218286 31.749851 2.048 7.551269 4.107703 10.275109 9.476389 14.938697 18.671908l0.026332 0.049737c0.514926 1.012297 1.050331 2.071406 1.620846 3.180252 5.85728 11.392731 14.025874 24.365349 34.842331 32.832365 15.079131 6.132297 24.245394 15.48288 29.303954 26.094446 5.152183 10.801737 6.4512 23.780206 4.119406 37.475474-0.9216 5.409646-5.184366 15.836891-13.745006 28.484755-8.367543 12.355291-20.231314 25.924754-35.28704 37.768045-29.944686 23.557851-72.192 40.117394-125.349303 27.349578-54.590903-13.115977-85.416229-39.614171-101.531062-67.016412-16.319634-27.7504-18.069211-57.259154-13.080869-76.978468 5.032229-19.891931 13.028206-28.332617 22.633326-34.154789 5.295543-3.212434 11.348846-5.769509 18.771383-8.756663l2.141622-0.857234c6.714514-2.691657 14.336-5.749029 22.24128-9.754332z m67.736138-41.515885c-11.71456-5.395017-21.638583-8.127634-30.485943-8.139337-9.300846-0.011703-16.468846 2.981303-22.38464 7.211885-4.192549 2.998857-8.083749 6.951497-11.228892 10.140526-0.77824 0.789943-1.512594 1.536-2.19136 2.205989-3.832686 3.780023-7.437166 6.892983-12.027611 9.218925-6.936869 3.516709-13.616274 6.196663-20.424412 8.92928l-2.112365 0.845532c-7.33184 2.952046-15.038171 6.135223-22.168137 10.456503-15.248823 9.242331-26.764434 23.028297-33.192229 48.429348-6.468754 25.573669-3.905829 61.422446 15.599909 94.585417 19.710537 33.516983 56.229303 63.490926 116.238628 77.90592 61.445851 14.763154 110.87872-4.643109 145.28512-31.708891 17.12128-13.467063 30.600046-28.870949 40.196389-43.046034 9.40032-13.88544 15.714011-27.5456 17.440183-37.677349 2.957897-17.38752 1.579886-35.439177-6.067932-51.475017-7.735589-16.228937-21.492297-29.520457-41.612434-37.70368-13.548983-5.50912-18.279863-12.978469-22.843977-21.85216-0.500297-0.974263-1.009371-2.001189-1.541852-3.074926-4.420754-8.926354-10.351177-20.895451-24.681325-28.686628-17.112503-9.306697-33.145417-6.746697-45.743543-4.739658l-0.863086 0.137509c-13.118903 2.086034-23.317943 3.505006-35.190491-1.963154z" fill="#894000" p-id="3328"></path><path d="M291.108571 830.902857a19.017143 19.017143 0 1 1 0-38.034286 19.017143 19.017143 0 0 1 0 38.034286z m459.337143 0a19.017143 19.017143 0 1 0 0-38.034286 19.017143 19.017143 0 0 0 0 38.034286z m92.16-10.24a19.017143 19.017143 0 1 1-38.034285 0 19.017143 19.017143 0 0 1 38.034285 0zM217.965714 839.68a19.017143 19.017143 0 1 1 0-38.034286 19.017143 19.017143 0 0 1 0 38.034286z m703.634286 19.017143a19.017143 19.017143 0 1 1-38.034286 0 19.017143 19.017143 0 0 1 38.034286 0zM138.971429 877.714286a19.017143 19.017143 0 1 1 0-38.034286 19.017143 19.017143 0 0 1 0 38.034286z m730.308022 39.6288c-5.933349 24.3712-42.709577 36.346149-82.142354 26.74688-39.432777-9.602194-66.586331-37.141943-60.652983-61.513143 5.933349-24.3712 42.709577-36.346149 82.142355-26.74688 39.429851 9.599269 66.586331 37.139017 60.652982 61.513143z m-614.862262 26.74688c-39.432777 9.599269-76.209006-2.37568-82.142355-26.74688-5.933349-24.374126 21.223131-51.913874 60.652983-61.513143 39.432777-9.599269 76.209006 2.37568 82.142354 26.74688 5.933349 24.3712-21.220206 51.910949-60.652982 61.513143z" fill="#FF8F8E" p-id="3329"></path><path d="M200.013531 383.824457c-21.916526 1.123474-20.655543-234.958263 50.895726-235.514148 11.776 0.693394 103.617097 78.175086 101.153646 100.78208-1.404343 12.9024-36.217417 39.892114-74.122972 69.280914-28.531566 22.1184-58.81856 45.597257-77.9264 65.451154z m616.565029 7.753143c21.863863 1.86368 28.59008-234.124434-42.896823-237.099886-11.793554 0.292571-106.206354 74.620343-104.50944 97.30048 0.968411 12.940434 34.848183 41.094583 71.738514 71.747292 27.767954 23.075109 57.238674 47.563337 75.667749 68.052114z" fill="#FFF9F0" p-id="3330"></path></svg>